<mxfile host="app.diagrams.net" modified="2024-03-15T11:43:45.140Z" agent="Mozilla/5.0 (Windows NT 10.0; Win64; x64) AppleWebKit/537.36 (KHTML, like Gecko) Chrome/122.0.0.0 Safari/537.36" etag="_VdBCNgRbT7ZV6_p-1Ul" version="24.0.7" type="device">
  <diagram name="Strona-1" id="zvwgiOf5Lfky3_C_92z2">
    <mxGraphModel dx="819" dy="426" grid="1" gridSize="10" guides="1" tooltips="1" connect="1" arrows="1" fold="1" page="1" pageScale="1" pageWidth="827" pageHeight="1169" math="0" shadow="0">
      <root>
        <mxCell id="0" />
        <mxCell id="1" parent="0" />
        <mxCell id="j--J7mZvZ6X09uwxpyXL-1" value="&lt;b&gt;&lt;i&gt;&lt;font face=&quot;Comic Sans MS&quot;&gt;Go 1.22&lt;br&gt;API&lt;/font&gt;&lt;/i&gt;&lt;/b&gt;" style="whiteSpace=wrap;html=1;aspect=fixed;sketch=1;curveFitting=1;jiggle=2;rounded=1;" parent="1" vertex="1">
          <mxGeometry x="146.5" y="240" width="80" height="80" as="geometry" />
        </mxCell>
        <mxCell id="j--J7mZvZ6X09uwxpyXL-2" value="&lt;font face=&quot;Comic Sans MS&quot;&gt;&lt;b&gt;&lt;i&gt;Redis&lt;/i&gt;&lt;/b&gt;&lt;/font&gt;" style="whiteSpace=wrap;html=1;aspect=fixed;sketch=1;curveFitting=1;jiggle=2;rounded=1;" parent="1" vertex="1">
          <mxGeometry x="250" y="240" width="80" height="80" as="geometry" />
        </mxCell>
        <mxCell id="j--J7mZvZ6X09uwxpyXL-3" value="&lt;font face=&quot;Comic Sans MS&quot;&gt;&lt;b&gt;&lt;i&gt;Cassandra&lt;/i&gt;&lt;/b&gt;&lt;/font&gt;" style="whiteSpace=wrap;html=1;aspect=fixed;sketch=1;curveFitting=1;jiggle=2;rounded=1;" parent="1" vertex="1">
          <mxGeometry x="354" y="240" width="80" height="80" as="geometry" />
        </mxCell>
        <mxCell id="j--J7mZvZ6X09uwxpyXL-6" value="" style="rounded=1;whiteSpace=wrap;html=1;fillColor=none;sketch=1;curveFitting=1;jiggle=2;dashed=1;dashPattern=12 12;" parent="1" vertex="1">
          <mxGeometry x="115" y="175" width="445" height="205" as="geometry" />
        </mxCell>
        <mxCell id="j--J7mZvZ6X09uwxpyXL-9" value="&lt;b style=&quot;border-color: var(--border-color); color: rgb(0, 0, 0); font-family: &amp;quot;Comic Sans MS&amp;quot;; font-style: normal; font-variant-ligatures: normal; font-variant-caps: normal; letter-spacing: normal; orphans: 2; text-align: center; text-indent: 0px; text-transform: none; widows: 2; word-spacing: 0px; -webkit-text-stroke-width: 0px; background-color: rgb(251, 251, 251); text-decoration-thickness: initial; text-decoration-style: initial; text-decoration-color: initial;&quot;&gt;&lt;i style=&quot;border-color: var(--border-color);&quot;&gt;&lt;font style=&quot;font-size: 12px;&quot;&gt;localhost:6379&lt;/font&gt;&lt;/i&gt;&lt;/b&gt;" style="text;whiteSpace=wrap;html=1;" parent="1" vertex="1">
          <mxGeometry x="244.5" y="210" width="91" height="30" as="geometry" />
        </mxCell>
        <mxCell id="j--J7mZvZ6X09uwxpyXL-10" value="" style="shape=image;verticalLabelPosition=bottom;labelBackgroundColor=default;verticalAlign=top;aspect=fixed;imageAspect=0;image=data:image/png,iVBORw0KGgoAAAANSUhEUgAAAR0AAACjCAMAAACAAzr4AAAABGdBTUEAALGPC/xhBQAAACBjSFJNAAB6JgAAgIQAAPoAAACA6AAAdTAAAOpgAAA6mAAAF3CculE8AAACcFBMVEUAAAA5TVQ5TVQ5TVQ5TVQ5TVQ5TVQ5TVQ5TVQ5TVQ5TVQ5TVQ5TVQ5TVQ5TVQ5TVQ5TVQzans3VF4gwu8tiKImpcgOlLMkcYQweY4uX2wArNMdfZQrZXQViKMHoMMjs9wplrU0aHo4VF01YXAkuOsopM8nq9glseIvg6AwfJYskLIpncUxdY02Wmcrl7wyWWQ2XGcyWWUrZHYgdo8dfJcnan4uXm0Vh6gLmcEAqtoEpNIOk7kZgZ8yboMffJgHnskdtegit+oCq9sHrd0Or+AXs+UbtecSjbA1U1wtiakSseMkcIYZtOYQsOEJrt4gtukFrNwGpdMqj7ESeJkOfJ8QhqgRiKoPf6IkZHoAi7gClcEDm8YDmcQBjrsHg6w1UVodbIYBkLwClsIAjLknYHMDmsUBkr4SepsyVWErXW0VdJMZcIwCk78Cl8MLf6UAjboEh7Idpcs3sNEQoMkClMBEtdO64+zU7fGg2eYqqs4uWWdsxNyasbaHnaO3z9RRutYCmMMBj7xMYWhDV17H6O7K4+dgdXuGzuGtxcqQp6wBkb2ku8DB2d2t3ulWa3F9k5lziY8KkbiT0+QNjLEedI0vXGkGlr8sYXE2UlsbeZQyV2IOfaAQh6klan8Ug6JKX2amwMaeuL2Npqx8lJqfub6w0dlSaG630te/2+DE4OTP6e3D3uPM5uvT7PDA3OHH4ubN5+x5yd4gaIBBVl3G4eXR6+/C3eLL5erK5OnQ6u50i5E8qMhbcXez1t4Ylb2bzNkMkLuPx9auyc93vdFrgomn0dskmsBIqceDwtSEnaMwn8JjeYCVr7SixMwjiar///+vKLYYAAAAEHRSTlMAIIBAEK/vUJ9gzzC/cN+PJPpEVgAAAAFiS0dEz4PewmkAAAAHdElNRQfnAwkJNDP2Fh2uAAAMwUlEQVR42u2d+X8TxxmHkWTJknWNY+M2mBySZVuyLbfYBmM7KqS5rNCmh13KUmObs7axg6EEFYoJpECAkpY0UNKTGLfESdOkDS1pU9I0TdI2vf6m7szsrnZXe8we8s7Cfn9B8NnRzj687zvvvDM7WrWKBvn8mgo43T9nFQCa8jvdP48OvfLo6NKpV9Q9Hh1Ep0FR9R4djw4BHdDY0AgaVoPVDaCe/+TR8eh4dDw6Hh2PDlXy6Hh0PDoeHY8OTfLoeHQ8Oh4djw5N8uh4dCzSuRsqpzrLL6qqKp0an9NYLNKp6opNMFTrNBdrdKq52hemxj8ppBNBXxOscRoNT6dJUZ8C4NOrFaXa5F4b6PD/X3UU4EF9WaOoZsAO2opSbbLWOp2aEG+EoajTcHg69923pql5zf3N94s+IToPND7Q0Li64cEHG1YLnzCd5ibhQqGJDXRg0AGpNB14ODpr17Iw1jSBJtEnRAdle40N9TDh4z9hOqCZvxCUG1umg/rTkmmlAw9tdGKwP22ZTHsLDXgooxOF3clmMgIeZ0MzZXRg1Em3Z8p4nB25KKMDB6xcJiPCE/To8KqFvWnN8HhQaI57dDiF0YAlCI9cDkZmuugk+JjMqQOFHo8Okg92plNEJ9Nlz7z2jqCDwo4YTqY9D//JsXIPVXT8cBIhoZPphP0Le3RYBdnmXVI62LeceveCKjoxWVCGaks7aDxU0YG5YLeMTibrYOShik7FkIUCM/zXpEdHmQ6KPAmPjgqdTucSZqpqg8p0Mvlqu1ZE7T3FsO115ZjqO5Fm6eSqPZ2IaS6y2LomoS6zdLqJGleNzgrJLJ02ISGMBlgTjLGCb+faF4pcTScDE8JIJFkn/8K6ZK0tpUNI5zNrFQXUFsU/a7zJPWpN7iWiAx8/q0AnpYE8GLGHTrNyJAVqGyoajTepV2vSREQH9jJnkA4AIb9VA3IHHYU5upzOup6e3r6+vvU9PTbywXRQ6tYME77yJ/yo9eXtW8KnRmmTZlkTlb1fKEesaEJGB+0vUKWzobd/44BIg0N9G3g+CUv+5Q46aDWrVZHO+v7BAQUNPsQDilkYwtxBB03SFcJy4XObBlQ1xPmYhRqQS+jI1iR4bR7QVD+yHfNw3EIHFZbb5HAe/rw2nV6LpuMWOjXitVBBj2jD2WjVdNxCR7yOLuhRbTgDKO5Ymla4hU55D4agx3Tg9MEm1grPbqGDOpoWR57HdeA8gdLBuyEbXMVV40T58madiLxxGDawuL3ZNXTQmhYoCsOVXkRGcKwWDt1DB+857SYbroaGLY9X7qKDc550K8lw9RCu8liu8biHTiSBHhlF5ic12WzqsQmOa+hwbEC+VXcs7xu2C4476Pj8HBuQa9eD078OX2nLCjv9dGoiQb5Y09KpM5Zv6h3myl42lE3ppxONC2hAvkM70RnqFWpeQZs2H9BbOa0J+IPCiyMCGwHOoKjotXHooV5RwTRhYlruCyipjgY6kh7V+tHSlLSAXuDzHKFogQbtDT09w0CmmCmn8gM1Ob5io6OWYltlirxO8dJQ2OScPEzQD/qULhRFU88ynCGFaxNh89MqKlY9DSlfKEor7aLJ1RbppXUxf62lSOwWOukUq2y2u3JlWARnEF6ZZGNUBIYqG/I+GP/7ha/PuE/iaTmqbNm5ZxB+35CL6UhqFjAm2/qSjcvpSOCgpRhb9yq7m4602gWTYlv3U9ZAOpvcSkc6fUDDuT0zKU6oLjvgUjqyuRWcNYTshCOn87jTD2wBDjIdS28fVWSNLqbzBdmsHJmOSo4TJZpJ+OXVnyrQybUbu76129j1nOTFLi3TiSbI6ICYlG5USucx63A6QIshPK3ptEGcSBU1ZA3TiYbIUkR2zinDKB3RnxR3O99motdF9vtaWsmv70hzVWFjenSgf/0goenEQ2Tre3jxR7JrTkrni8Lt27PGnpIjijelpYuE17cX8CzKoDc+/BTM/IafIDEdH5pJkqxhcfVG8a5CKZ2nBDZpQ0+J1V3eztjSSdKgmBYmmTkDhvqlRwbRHhzQ069nOj6+QqOfB5VrOaFkVJHOl/FTdgkX8pVJfXXm8pJJdUqvZXtW2qClSAho81f6hNLfut6Nwgyr0nRqy+VnPTwB6d7vRBLNSKDd9YnSwdZiIS25Lp/TN4NOeSPOHtRbtncUFMoU+a4OXULtX10vbbRuS/+m/krT8UXCIcl1WmdfRZWKgHVhtCQE6QwODfX3bekBSkoXsp0qvW7tzHZpbJ5OF4qVhNq6s1pNUrmi6t26cy2qDUMBPAH1BQJxfyyhcIHKNmVfvA5YVkuqKwvLT1Ad7KdcKpUmapiHDYuwGduqkCJqwzZKZSW3K6TyZC21VFlEDfhtQHPHKBSM+8pk3FIZXUklgnE4KAX0FYeXj4wK+tpWevX1UUVtg48QJnhWsQiXcOBXjzKCtn+DVo3tYBQ1PgGqd6QVDO6T5XvtdBqCmnbtVobD7IH/v9U66BQmTHtEN9vrNAZl7VNhw3wTwrG82U1NMPBMie5GpWupeRXvV1U72QFVeMbpdq3tal7FMNOw+1U86wt+/YzofmNOs5Br705VNsz+qvrVKjzTEgeeWadpyDSnbjjM06CK4xUSDDwTojsecBqHRHv3qbNh5qeqOV4hoeLpCKVxee6ABhw8mFf5KCKY8Wyj0ng0DYcLOtU+uzMpcy1qjEfbcJhRFHSqfZZMhWuZMJ6Dhw59y2Y2WkMVisgw07F3ZVhRCdmoxRw2+CDPHCmx+vZRO+Ec3q0NZ/4YhLMCR1jFZQkhs9vYdOI7pdLxhYUTpdKztrE5eYrREUoDV+LUTnQi5qT41oYS5mdKJ54D4LssndMH7WGjE42hUNkisSKnKcOa88S8+Oa7DDzLkTMsHHAWOtfztsDRcypWkysSkbEC8tkEs5t8PnG0dBxV3M6Vzp8o2cBmbocuG2YGVD0NFCkmm6gzzA7ipzlUWuBLkset0xnTDTgCnOoPV2Lj2S/pwQUTdL5nlc7eCwRsODgreFBwrCLyEOeEBznPYnXxtDU2s/oBR4CzkmeZRiqGLXI8L5S+j+H8wFJUJmTjABycEU6MS7qx+yTZYx0qnTkLO3zpjIURnZSNI3Bw5NnDmMLzbKl0YuH8xdJp08kyMRtn4HC7V0ZkePTSnhe3oj+O/pDNdU4/b9ZyyNk4BWeVD+5YmJqX9UYr9rx0+QoAV7i/HDVtN2MXiNngDNmRw6XjCr7FMPsUn+hHWy9ffRmH4hfNUsGaIxrDseadg8O9jDQi79Ip6Yz0pa0/vnz1J+U16SsmqWBtJ8iLy3COOQgH+9bE9PQk1H5hmfqnP9vKEmF19epV2XL9yz//hQU0Y/vIXYrh6zkrlyHLVWtoJ8PZhXNWKhbbSaYM4njsMBxcQyUCc+n8OTglP2IWzUljZiPEY2d/PkxnH9TZs5cWjp+7WBJkynjGDh8wiIYZxyGnztkflUWh59ori0jXl7Cuw7/88lclBRk3nrHDRgIxpxHsVWGnf/QSVeBvvLqsoNdeV8BjzHhOmkHDD+SO/jIWp4g6nuVfv/EbOZ3T5CsRu/YZdiik0Skccpz6+RWJ4hp4lt9867cyPL8jIjM3a3CEKhvO29hwYk57FSe0sfnmK8sqevP3b/xBjEdvBrHXPBkYcaao8SoyPKxuvfWOEIRe0IjAc7M7zXkTp/E9mE2d0z+TWoEHXF/W1q3X/vjO639S9K2xue2zFyxYDKdJPFRR8vPeMjzvLhPp1p93zgq6cOqUdSpSp6LKcJBw0nz7VSI87/3FJh5ijU5jNiHKDAcJ/yT7zUUiPO//1W42fMCx7TAqm1WLX99ZIsLzgc1suPTP1GFUK6MonnPd+BsJng/t9CmeTYieYbxSNfjFuJtE5mMbHj7e2PCjGFVWHHvXDZLoYwue+ZkpvhwQpjPgiMV5F/iIwL0+tByan9424SI2UNyRcjeX9Ad3ayPX/MwxHk0o6Q42rKIxYj4f/900mxE+ErPjFO3xRqpIiOej51/v/cMkGsGjTB6a6KRq/Pyryx/pxed/GvWu+Zk9ZTSmD010mI/wuva1T7QN6ON/GUAzOinEGmQ2rnIpsXzlV99vaAMiHLtGJ6dFZEAi7ppIrKgaf/kF+BvvariYbvQZn3lbQgYkkq70KJki4te3by8tqo1i76u51/zofhkYAOpcbjUi+fySExSu/XvpP4pW9IGMz/jozOS26QkZGJAIuzfWKCualB8xcfP27aWlTxYXF/8r5vM/uAa/f5KFUkkFkQneOUYjBRS3eEJCLBm5M8nwMnmGRIgFcyeEYAJFI/5YiJRLLOiP2HGor8sEj1yPKZ13AwekGAuFpXKXmIumJCfoUx9Y/g/n5uqkUGI7tAAAACV0RVh0ZGF0ZTpjcmVhdGUAMjAyMy0wMy0wOVQwOTo1Mjo1MSswMDowMFdpMIIAAAAldEVYdGRhdGU6bW9kaWZ5ADIwMjMtMDMtMDlUMDk6NTI6NTErMDA6MDAmNIg+AAAAGXRFWHRTb2Z0d2FyZQBBZG9iZSBJbWFnZVJlYWR5ccllPAAAAABJRU5ErkJggg==;" parent="1" vertex="1">
          <mxGeometry x="80" y="150" width="101.99" height="58.33" as="geometry" />
        </mxCell>
        <mxCell id="j--J7mZvZ6X09uwxpyXL-12" value="&lt;b style=&quot;border-color: var(--border-color); color: rgb(0, 0, 0); font-family: &amp;quot;Comic Sans MS&amp;quot;; font-style: normal; font-variant-ligatures: normal; font-variant-caps: normal; letter-spacing: normal; orphans: 2; text-align: center; text-indent: 0px; text-transform: none; widows: 2; word-spacing: 0px; -webkit-text-stroke-width: 0px; background-color: rgb(251, 251, 251); text-decoration-thickness: initial; text-decoration-style: initial; text-decoration-color: initial;&quot;&gt;&lt;i style=&quot;border-color: var(--border-color);&quot;&gt;&lt;font style=&quot;font-size: 12px;&quot;&gt;localhost:9042&lt;br&gt;&lt;br&gt;&lt;/font&gt;&lt;/i&gt;&lt;/b&gt;" style="text;whiteSpace=wrap;html=1;" parent="1" vertex="1">
          <mxGeometry x="344" y="210" width="91" height="30" as="geometry" />
        </mxCell>
        <mxCell id="j--J7mZvZ6X09uwxpyXL-13" value="&lt;b style=&quot;border-color: var(--border-color); color: rgb(0, 0, 0); font-family: &amp;quot;Comic Sans MS&amp;quot;; font-style: normal; font-variant-ligatures: normal; font-variant-caps: normal; letter-spacing: normal; orphans: 2; text-align: center; text-indent: 0px; text-transform: none; widows: 2; word-spacing: 0px; -webkit-text-stroke-width: 0px; background-color: rgb(251, 251, 251); text-decoration-thickness: initial; text-decoration-style: initial; text-decoration-color: initial;&quot;&gt;&lt;i style=&quot;border-color: var(--border-color);&quot;&gt;&lt;font style=&quot;font-size: 12px;&quot;&gt;localhost:8080&lt;br&gt;&lt;br&gt;&lt;/font&gt;&lt;/i&gt;&lt;/b&gt;" style="text;whiteSpace=wrap;html=1;" parent="1" vertex="1">
          <mxGeometry x="140" y="210" width="91" height="30" as="geometry" />
        </mxCell>
        <mxCell id="xJ9EomoTuf9dD2gPHXFs-1" value="&lt;font face=&quot;Comic Sans MS&quot;&gt;&lt;b&gt;&lt;i&gt;Cassandra&amp;nbsp;&lt;/i&gt;&lt;/b&gt;&lt;/font&gt;&lt;div&gt;&lt;font face=&quot;Comic Sans MS&quot;&gt;&lt;b&gt;&lt;i&gt;init&lt;/i&gt;&lt;/b&gt;&lt;/font&gt;&lt;/div&gt;&lt;div&gt;&lt;font face=&quot;Comic Sans MS&quot;&gt;&lt;b&gt;&lt;i&gt;container&lt;/i&gt;&lt;/b&gt;&lt;/font&gt;&lt;/div&gt;" style="whiteSpace=wrap;html=1;aspect=fixed;sketch=1;curveFitting=1;jiggle=2;rounded=1;" vertex="1" parent="1">
          <mxGeometry x="450" y="238.33" width="80" height="80" as="geometry" />
        </mxCell>
        <mxCell id="xJ9EomoTuf9dD2gPHXFs-2" value="&lt;b style=&quot;border-color: var(--border-color); color: rgb(0, 0, 0); font-family: &amp;quot;Comic Sans MS&amp;quot;; font-style: normal; font-variant-ligatures: normal; font-variant-caps: normal; letter-spacing: normal; orphans: 2; text-align: center; text-indent: 0px; text-transform: none; widows: 2; word-spacing: 0px; -webkit-text-stroke-width: 0px; background-color: rgb(251, 251, 251); text-decoration-thickness: initial; text-decoration-style: initial; text-decoration-color: initial;&quot;&gt;&lt;i style=&quot;border-color: var(--border-color);&quot;&gt;&lt;font style=&quot;font-size: 12px;&quot;&gt;not exposed&lt;/font&gt;&lt;/i&gt;&lt;/b&gt;" style="text;whiteSpace=wrap;html=1;" vertex="1" parent="1">
          <mxGeometry x="455" y="208.33" width="80" height="30" as="geometry" />
        </mxCell>
        <mxCell id="xJ9EomoTuf9dD2gPHXFs-4" value="" style="shape=image;verticalLabelPosition=bottom;labelBackgroundColor=default;verticalAlign=top;aspect=fixed;imageAspect=0;image=https://static-00.iconduck.com/assets.00/redis-plain-icon-2048x1748-fmvimw1g.png;" vertex="1" parent="1">
          <mxGeometry x="297.13000000000005" y="304.79" width="46.87" height="40" as="geometry" />
        </mxCell>
        <mxCell id="xJ9EomoTuf9dD2gPHXFs-10" value="" style="shape=image;verticalLabelPosition=bottom;labelBackgroundColor=default;verticalAlign=top;aspect=fixed;imageAspect=0;image=https://upload.wikimedia.org/wikipedia/commons/thumb/5/5e/Cassandra_logo.svg/1280px-Cassandra_logo.svg.png;" vertex="1" parent="1">
          <mxGeometry x="381" y="300" width="74" height="49.58" as="geometry" />
        </mxCell>
        <mxCell id="xJ9EomoTuf9dD2gPHXFs-11" value="" style="shape=image;verticalLabelPosition=bottom;labelBackgroundColor=default;verticalAlign=top;aspect=fixed;imageAspect=0;image=https://upload.wikimedia.org/wikipedia/commons/thumb/5/5e/Cassandra_logo.svg/1280px-Cassandra_logo.svg.png;" vertex="1" parent="1">
          <mxGeometry x="470" y="300" width="74" height="49.58" as="geometry" />
        </mxCell>
        <mxCell id="xJ9EomoTuf9dD2gPHXFs-12" value="" style="shape=image;verticalLabelPosition=bottom;labelBackgroundColor=default;verticalAlign=top;aspect=fixed;imageAspect=0;image=https://miro.medium.com/v2/resize:fit:1000/0*YISbBYJg5hkJGcQd.png;" vertex="1" parent="1">
          <mxGeometry x="181.99" y="290" width="80" height="80" as="geometry" />
        </mxCell>
      </root>
    </mxGraphModel>
  </diagram>
</mxfile>
